<svg width="120" height="134" viewBox="0 0 120 134" xmlns="http://www.w3.org/2000/svg"><path d="M66.7164179,29.5522388 C70.8016764,29.5522388 74.1134328,32.8639952 74.1134328,36.9492537 C74.1134328,40.9652706 70.912988,44.2337835 66.9234639,44.3434269 L66.7164179,44.3462687 C54.4606423,44.3462687 44.5253731,54.2815378 44.5253731,66.5373134 C44.5253731,78.793089 54.4606423,88.7283582 66.7164179,88.7283582 C76.2759229,88.7283582 84.4236317,82.6837404 87.5459436,74.2081058 L87.6440525,73.9343284 L66.7164179,73.9343284 C62.700401,73.9343284 59.4318881,70.7338835 59.3222448,66.7443595 L59.319403,66.5373134 C59.319403,62.5212966 62.5198478,59.2527836 66.5093719,59.1431403 L66.7164179,59.1402985 L96.3044776,59.1402985 C100.389736,59.1402985 103.701493,62.4520549 103.701493,66.5373134 C103.701493,86.9636061 87.1427106,103.522388 66.7164179,103.522388 C46.2901252,103.522388 29.7313433,86.9636061 29.7313433,66.5373134 C29.7313433,46.1110207 46.2901252,29.5522388 66.7164179,29.5522388 Z" fill="#F01B2A"/><path d="M91.7303886,21.1846858 C95.3021875,23.1642111 96.5926924,27.6639289 94.6128119,31.2350869 C92.6329315,34.806245 88.1324062,36.0965183 84.5606073,34.1169931 C66.701613,24.219367 44.1989865,30.6707336 34.2995843,48.5265238 C24.4001821,66.382314 30.8527064,88.8809032 48.7117007,98.7785293 C66.3921051,108.577179 88.6237334,102.352181 98.671978,84.901246 L98.9727238,84.3689986 C100.952604,80.7978406 105.453129,79.5075672 109.024928,81.4870925 C112.596727,83.4666177 113.887232,87.9663355 111.907352,91.5374936 C98.0481886,116.5356 66.5445115,125.567513 41.5419194,111.710837 C16.5393273,97.85416 7.50579329,66.3561351 21.3649564,41.3580288 C35.2241195,16.3599226 66.7277966,7.32800927 91.7303886,21.1846858 Z" fill="#F3B702"/><path d="M118.350765,24.6654125 C120.922536,27.8384413 120.432815,32.4936547 117.256943,35.0631227 C114.137783,37.5867074 109.587619,37.1598071 106.989665,34.1376935 L106.849915,33.9702794 C88.847521,11.7590779 56.2318257,8.33409939 34.0007205,26.3203757 C11.7696154,44.3066519 8.34156768,76.8931461 26.3439617,99.1043475 C44.1663317,121.093437 76.3111984,124.670149 98.5231325,107.287419 L99.1931561,106.754251 C102.369028,104.184783 107.028413,104.674066 109.600184,107.847095 C112.171954,111.020123 111.682233,115.675337 108.506361,118.244805 C79.9235117,141.370017 37.9890463,136.966473 14.8431112,108.409214 C-8.30282393,79.8519554 -3.89533402,37.9550343 24.6875154,14.829822 C53.2703649,-8.29539034 95.2048303,-3.89184649 118.350765,24.6654125 Z" fill="#019FD7"/></svg>