<svg width="32" height="32" viewBox="0 0 32 32" xmlns="http://www.w3.org/2000/svg"><g fill="none" fill-rule="evenodd"><path d="M18,7.01369863 C18.9925994,7.01369863 19.7972603,7.81835946 19.7972603,8.8109589 C19.7972603,9.78673463 19.0196449,10.5808885 18.0503062,10.6075287 L18,10.6082192 C15.0222017,10.6082192 12.6082192,13.0222017 12.6082192,16 C12.6082192,18.9777983 15.0222017,21.3917808 18,21.3917808 C20.3226827,21.3917808 22.3023398,19.9231139 23.0609711,17.8637803 L23.0848088,17.7972603 L18,17.7972603 C17.0242243,17.7972603 16.2300704,17.0196449 16.2034302,16.0503062 L16.2027397,16 C16.2027397,15.0242243 16.9803551,14.2300704 17.9496938,14.2034302 L18,14.2027397 L25.1890411,14.2027397 C26.1816405,14.2027397 26.9863014,15.0074006 26.9863014,16 C26.9863014,20.9629972 22.9629972,24.9863014 18,24.9863014 C13.0370028,24.9863014 9.01369863,20.9629972 9.01369863,16 C9.01369863,11.0370028 13.0370028,7.01369863 18,7.01369863 Z" fill="#000" fill-rule="nonzero"/><path d="M30.5338832,5.93120731 C31.1539265,6.69421468 31.0358567,7.81363792 30.270167,8.4315091 C29.5181503,9.03834687 28.4211246,8.93569162 27.7947686,8.20897431 L27.7610754,8.16871679 C23.4207722,2.82766522 15.5572621,2.00407235 10.197434,6.32917064 C4.8376059,10.6542689 4.01111769,18.4902316 8.35142089,23.8312832 C12.6483211,29.1189243 20.3983163,29.979004 25.7535224,25.7990383 L25.9150623,25.6708294 C26.680752,25.0529582 27.8041106,25.1706143 28.4241539,25.9336217 C29.0441972,26.696629 28.9261275,27.8160523 28.1604378,28.4339235 C21.2692302,33.9947641 11.1590029,32.935859 5.57861311,26.0687927 C-0.00177672902,19.2017264 1.06085098,9.12691719 7.95205852,3.56607653 C14.8432661,-1.99476412 24.9534933,-0.935859003 30.5338832,5.93120731 Z" fill="#000" fill-rule="nonzero"/></g></svg>